<?xml version="1.0" standalone="no"?>
<!DOCTYPE svg PUBLIC "-//W3C//DTD SVG 20010904//EN"
 "http://www.w3.org/TR/2001/REC-SVG-20010904/DTD/svg10.dtd">
<svg version="1.0" xmlns="http://www.w3.org/2000/svg"
 width="561.000000pt" height="561.000000pt" viewBox="0 0 561.000000 561.000000"
 preserveAspectRatio="xMidYMid meet">
<metadata>
Created by potrace 1.14, written by Peter Selinger 2001-2017
</metadata>
<g transform="translate(0.000000,561.000000) scale(0.100000,-0.100000)"
fill="#000000" stroke="none">
<path d="M2909 5487 c-203 -147 -409 -297 -588 -430 l-95 -70 -30 18 c-37 21
-100 56 -158 88 -120 65 -364 154 -473 173 -22 4 -48 8 -59 10 -313 56 -612
-24 -790 -210 -45 -48 -126 -170 -126 -191 0 -7 -4 -16 -9 -19 -10 -6 -12 -13
-39 -136 -19 -83 -23 -265 -8 -342 4 -16 8 -38 10 -51 4 -27 26 -91 55 -163
11 -29 22 -76 26 -105 3 -30 7 -70 10 -89 2 -19 7 -60 10 -90 8 -80 16 -150
21 -195 3 -22 7 -56 9 -75 2 -19 7 -64 10 -100 3 -36 8 -76 10 -90 2 -14 7
-52 10 -85 3 -33 8 -81 11 -106 l5 -46 -83 -27 c-321 -106 -557 -375 -627
-716 -15 -72 -13 -312 4 -383 55 -237 169 -433 364 -625 130 -128 333 -259
511 -329 184 -73 404 -87 561 -38 12 4 84 -23 197 -73 181 -80 214 -102 427
-281 11 -9 54 -43 95 -76 41 -33 84 -67 95 -77 11 -9 74 -60 140 -113 66 -53
137 -110 157 -126 243 -197 335 -269 345 -269 11 0 142 90 224 155 15 11 37
28 50 37 13 9 199 145 412 301 l388 285 42 -10 c136 -32 388 -43 520 -23 582
88 933 351 1041 780 33 130 34 310 4 413 -23 77 -68 172 -106 222 -44 60 -156
164 -210 195 -55 32 -54 31 -67 164 -12 122 -17 167 -20 171 -1 3 3 43 10 90
7 47 16 105 20 130 3 25 19 126 35 225 16 99 32 200 35 225 3 25 10 70 15 100
5 30 12 73 15 95 4 22 8 51 11 65 2 14 6 43 9 65 3 22 18 118 33 213 22 132
26 177 17 189 -6 8 -65 38 -130 67 l-119 52 -3 40 c-27 327 -223 620 -558 831
-72 46 -258 122 -334 138 -9 2 -38 9 -66 15 -137 32 -354 34 -480 6 -44 -10
-84 -21 -90 -25 -5 -3 -14 -6 -20 -7 -5 -1 -31 -10 -56 -20 l-46 -17 -204 164
c-112 90 -210 169 -217 176 -7 7 -19 13 -26 13 -7 0 -64 -37 -127 -83z m1166
-573 c144 -27 296 -95 406 -180 58 -45 157 -157 191 -215 21 -34 36 -64 34
-67 -2 -2 -78 29 -167 68 -90 40 -221 97 -290 127 -121 53 -166 82 -308 201
-24 20 -54 44 -67 52 -13 8 -24 18 -24 23 0 12 143 6 225 -9z m-2640 -9 c73
-10 185 -42 281 -81 95 -38 168 -74 162 -79 -2 -2 -69 -29 -148 -60 -80 -30
-154 -59 -165 -64 -11 -5 -58 -23 -105 -41 -47 -17 -105 -40 -130 -50 -135
-57 -392 -151 -402 -148 -14 5 -17 22 -25 128 -9 138 29 247 109 315 45 39
123 73 183 81 28 3 51 7 53 9 5 4 128 -3 187 -10z m-691 -2122 c-3 -15 -36
-227 -64 -413 -14 -93 -60 -390 -77 -497 -9 -57 -19 -103 -22 -103 -11 1 -98
123 -128 180 -28 51 -55 124 -69 181 -4 13 -8 67 -9 119 -4 144 36 258 132
378 49 60 173 149 240 171 0 1 -1 -7 -3 -16z"/>
</g>
</svg>
